Coordinates
version=1
nRows=6
nColumns=36
inDegrees=yes

Units are S.I. units (second, meters, Newtons, ...)
Angles are in degrees.

endheader
time	pelvis_tilt	pelvis_list	pelvis_rotation	pelvis_tx	pelvis_ty	pelvis_tz	hip_flexion_r	hip_adduction_r	hip_rotation_r	knee_angle_r	ankle_angle_r	subtalar_angle_r	hip_flexion_l	hip_adduction_l	hip_rotation_l	knee_angle_l	ankle_angle_l	subtalar_angle_l	lumbar_extension	lumbar_bending	lumbar_rotation	arm_flex_r	arm_add_r	arm_rot_r	elbow_flex_r	pro_sup_r	wrist_flex_r	wrist_dev_r	arm_flex_l	arm_add_l	arm_rot_l	elbow_flex_l	pro_sup_l	wrist_flex_l	wrist_dev_l
      2.77000000	     -2.09255160	      2.14402438	     -0.77933780	      0.29622978	      0.92009278	     -0.15258319	     29.16035981	     -1.08587199	     -1.36853738	    -50.45557145	      0.09859496	     -9.44800426	      3.45947132	      7.43687316	      5.59744795	    -17.81767189	     10.99706227	      0.68362959	     -4.46481176	     -1.98752666	     -7.99480396	     -7.23008788	    -16.78317256	      6.21164215	     19.13268814	     86.51662706	      0.00000000	      0.00000000	      0.81347605	    -18.94436240	     14.56162860	     29.96551984	     86.51662706	      0.00000000	      0.00000000
      2.78000000	     -1.99754609	      2.09342608	     -0.46743197	      0.30826285	      0.91969538	     -0.15233491	     29.37957872	     -1.23405088	     -1.75993527	    -47.12063463	      0.38600722	     -9.65982707	      2.12601999	      7.29513691	      5.74452062	    -17.10101341	     11.41095959	      1.10064238	     -4.63113857	     -1.90972467	     -8.44872532	     -7.45247819	    -16.68790421	      5.89114071	     18.70323952	     86.51662706	      0.00000000	      0.00000000	      1.15144832	    -19.16119101	     14.10010790	     31.17608626	     86.51662706	      0.00000000	      0.00000000
      2.79000000	     -1.88817485	      2.07690704	     -0.15406239	      0.32038772	      0.91909004	     -0.15207942	     29.46882989	     -1.41203208	     -2.18080503	    -43.58603829	      0.67500604	     -9.67324533	      0.79002903	      7.17796520	      5.88432106	    -16.41337104	     11.81366121	      1.53501626	     -4.81278820	     -1.87054709	     -8.88689577	     -7.66574768	    -16.58071973	      5.60729735	     18.26889985	     86.51662706	      0.00000000	      0.00000000	      1.48878851	    -19.36127424	     13.64674606	     32.33716466	     86.51662706	      0.00000000	      0.00000000
      2.80000000	     -1.76639482	      2.08572482	      0.16129105	      0.33261102	      0.91830321	     -0.15180141	     29.43781024	     -1.61000659	     -2.63891932	    -39.88978492	      0.98217054	     -9.38389885	     -0.54099379	      7.07948965	      6.02673977	    -15.76970588	     12.19604773	      1.96646071	     -5.00574878	     -1.86086977	     -9.30861045	     -7.86918904	    -16.46373160	      5.37619435	     17.82704744	     86.51662706	      0.00000000	      0.00000000	      1.82418490	    -19.54171241	     13.20984208	     33.44203260	     86.51662706	      0.00000000	      0.00000000
      2.81000000	     -1.63323561	      2.10824611	      0.47812613	      0.34492786	      0.91738730	     -0.15147768	     29.29832507	     -1.81371975	     -3.14085563	    -36.08306631	      1.31306289	     -8.71067850	     -1.86103494	      6.98853131	      6.17892886	    -15.18334493	     12.55167750	      2.37866930	     -5.20652031	     -1.86892748	     -9.71102144	     -8.06138275	    -16.33969348	      5.21420748	     17.37588156	     86.51662706	      0.00000000	      0.00000000	      2.15421423	    -19.70163935	     12.79520430	     34.48767566	     86.51662706	      0.00000000	      0.00000000
      2.82000000	     -1.48878103	      2.13223843	      0.79335364	      0.35733987	      0.91638857	     -0.15109277	     29.06470035	     -2.00445519	     -3.69227555	    -32.23125155	      1.66371069	     -7.61191609	     -3.16599043	      6.89014051	      6.34500244	    -14.66392882	     12.87635193	      2.75963763	     -5.41244099	     -1.88128281	    -10.08895039	     -8.23993999	    -16.21205530	      5.13714020	     16.91502766	     86.51662706	      0.00000000	      0.00000000	      2.47355360	    -19.84155711	     12.40494431	     35.47497312	     86.51662706	      0.00000000	      0.00000000
